<?xml version="1.0" encoding="UTF-8"?>
<svg id="Layer_2" data-name="Layer 2" xmlns="http://www.w3.org/2000/svg" viewBox="0 0 629.06 228.36">
  <defs>
    <style>
      .cls-1 {
        fill: #001a1a;
      }
    </style>
  </defs>
  <g id="Layer_1-2" data-name="Layer 1">
    <g>
      <g>
        <path class="cls-1" d="M66.78,228.36c-5.29,0-9.91-1.11-13.85-3.33-3.94-2.22-6.59-5.5-7.94-9.85l9.58-2.47c.95,2.6,2.52,4.52,4.72,5.76,2.2,1.25,4.69,1.87,7.49,1.87,3.04,0,5.38-.61,7-1.83,1.62-1.22,2.43-2.86,2.43-4.9,0-1.75-.75-3.19-2.25-4.34-1.5-1.15-3.36-1.98-5.58-2.51-2.22-.52-4.63-1.2-7.23-2.02-2.59-.82-5-1.75-7.22-2.77-2.22-1.02-4.08-2.67-5.58-4.94-1.5-2.27-2.24-5.03-2.24-8.27,0-4.24,1.71-7.69,5.13-10.33,3.42-2.64,8.1-3.97,14.04-3.97,5.09,0,9.38,1.05,12.88,3.14,3.49,2.1,5.89,5.19,7.19,9.28l-9.73,2.47c-1.55-4.59-4.99-6.89-10.33-6.89-2.69,0-4.83.59-6.4,1.76-1.57,1.17-2.36,2.68-2.36,4.53,0,1.5.55,2.75,1.65,3.74,1.1,1,2.53,1.8,4.3,2.4,1.77.6,3.73,1.16,5.88,1.68,2.15.52,4.29,1.19,6.44,1.98,2.14.8,4.1,1.76,5.88,2.88,1.77,1.12,3.21,2.73,4.3,4.83,1.1,2.1,1.65,4.57,1.65,7.41,0,4.44-1.76,8-5.28,10.67-3.52,2.67-8.37,4.01-14.56,4.01Z"/>
        <path class="cls-1" d="M184.32,227.61h-10.33v-43.35h-16.55v-9.06h43.42v9.06h-16.55v43.35Z"/>
        <path class="cls-1" d="M302.5,222.71c-4.07,3.77-9.32,5.65-15.76,5.65s-11.69-1.88-15.76-5.65c-4.07-3.77-6.1-9.25-6.1-16.43v-31.07h10.26v31.07c0,4.34,1.07,7.6,3.22,9.77,2.15,2.17,4.94,3.26,8.38,3.26s6.23-1.07,8.35-3.22c2.12-2.15,3.18-5.42,3.18-9.81v-31.07h10.33v31.07c0,7.19-2.04,12.67-6.1,16.43Z"/>
        <path class="cls-1" d="M403.3,227.61h-18.57v-52.41h18.57c7.93,0,14.24,2.4,18.9,7.19,4.67,4.79,7,11.13,7,19.02s-2.33,14.23-7,19.02c-4.67,4.79-10.97,7.19-18.9,7.19ZM394.99,183.96v34.89h8.31c4.79,0,8.58-1.55,11.38-4.64,2.79-3.09,4.19-7.36,4.19-12.8s-1.4-9.71-4.19-12.8c-2.79-3.09-6.59-4.64-11.38-4.64h-8.31Z"/>
        <path class="cls-1" d="M505.12,227.61h-10.26v-52.41h10.26v52.41Z"/>
        <path class="cls-1" d="M604.43,228.36c-7.39,0-13.33-2.47-17.82-7.41-4.49-4.94-6.74-11.46-6.74-19.54s2.25-14.6,6.74-19.54c4.49-4.94,10.43-7.41,17.82-7.41s13.4,2.47,17.89,7.41c4.49,4.94,6.74,11.46,6.74,19.54s-2.25,14.6-6.74,19.54c-4.49,4.94-10.46,7.41-17.89,7.41ZM604.43,219.6c4.39,0,7.87-1.61,10.45-4.83,2.57-3.22,3.85-7.67,3.85-13.36s-1.29-10.14-3.85-13.36c-2.57-3.22-6.05-4.83-10.45-4.83s-7.81,1.61-10.41,4.83c-2.6,3.22-3.89,7.67-3.89,13.36s1.3,10.14,3.89,13.36c2.6,3.22,6.07,4.83,10.41,4.83Z"/>
      </g>
      <path class="cls-1" d="M74.68,147.7h-28.71V27.25H0V2.08h120.65v25.17h-45.97v120.45Z"/>
      <path class="cls-1" d="M168.29,147.7h-28.5V2.08h28.5v145.62Z"/>
      <path class="cls-1" d="M263.36,149.78c-21.91,0-39.25-6.83-52.01-20.49-12.76-13.66-19.14-31.79-19.14-54.4s6.24-40.57,18.72-54.29C223.42,6.86,240.06,0,260.86,0c32.45,0,53.26,13.73,62.41,41.19l-27.88,7.49c-5.82-16.78-17.34-25.17-34.53-25.17-12.06,0-21.77,4.61-29.12,13.83-7.35,9.22-11.03,21.74-11.03,37.55s3.78,28.67,11.34,37.76c7.56,9.09,18.13,13.63,31.72,13.63,12.06,0,22.19-3.88,30.37-11.65v-25.38l-30.79-1.46v-18.51h58.46v55.33c-14.01,16.78-33.49,25.17-58.46,25.17Z"/>
      <path class="cls-1" d="M411.88,149.78c-20.53,0-37.03-6.86-49.51-20.59-12.48-13.73-18.72-31.83-18.72-54.29s6.24-40.57,18.72-54.29c12.48-13.73,28.99-20.59,49.51-20.59s37.24,6.86,49.72,20.59c12.48,13.73,18.72,31.83,18.72,54.29s-6.24,40.56-18.72,54.29c-12.48,13.73-29.05,20.59-49.72,20.59ZM411.88,125.44c12.2,0,21.87-4.47,29.02-13.42,7.14-8.95,10.72-21.32,10.72-37.13s-3.57-28.19-10.72-37.13c-7.14-8.95-16.82-13.42-29.02-13.42s-21.71,4.47-28.91,13.42c-7.21,8.95-10.82,21.32-10.82,37.13s3.6,28.19,10.82,37.13c7.21,8.95,16.85,13.42,28.91,13.42Z"/>
      <path class="cls-1" d="M532.12,147.7h-28.08V2.08h30.58l65.53,102.97h1.66c-.55-12.76-.83-26.14-.83-40.15V2.08h28.08v145.62h-30.79l-65.53-102.97h-1.46c.55,12.9.83,26.28.83,40.15v62.82Z"/>
    </g>
  </g>
</svg>