<svg id="Layer_1" data-name="Layer 1" xmlns="http://www.w3.org/2000/svg" viewBox="0 0 1920 1080"><defs><style>.cls-1{fill:#001a1a;}</style></defs><path class="cls-1" d="M763,663.41a32,32,0,0,1-15.93-3.83,19,19,0,0,1-9.13-11.33l11-2.84a12.06,12.06,0,0,0,5.42,6.63A17.1,17.1,0,0,0,763,654.2c3.51,0,6.19-.71,8.06-2.11a6.73,6.73,0,0,0,2.8-5.64,6,6,0,0,0-2.59-5,16.66,16.66,0,0,0-6.41-2.88c-2.56-.61-5.33-1.38-8.31-2.33a70.93,70.93,0,0,1-8.31-3.19,15.27,15.27,0,0,1-6.42-5.68,16.91,16.91,0,0,1-2.58-9.52A14.32,14.32,0,0,1,745.11,606q5.91-4.56,16.15-4.57,8.79,0,14.82,3.62a18.5,18.5,0,0,1,8.26,10.68l-11.19,2.84q-2.67-7.92-11.89-7.92a12,12,0,0,0-7.36,2,6.23,6.23,0,0,0-2.71,5.21,5.58,5.58,0,0,0,1.89,4.31,13.88,13.88,0,0,0,4.95,2.76c2,.68,4.29,1.33,6.76,1.93a69.92,69.92,0,0,1,7.41,2.28,36.32,36.32,0,0,1,6.76,3.32,14.08,14.08,0,0,1,4.95,5.56,18.15,18.15,0,0,1,1.9,8.52,14.65,14.65,0,0,1-6.07,12.27Q773.67,663.42,763,663.41Z"/><path class="cls-1" d="M898.2,662.55H886.31V612.69h-19V602.27h50v10.42h-19Z"/><path class="cls-1" d="M1034.14,656.91q-7,6.5-18.13,6.5t-18.13-6.5q-7-6.51-7-18.9V602.27h11.8V638q0,7.49,3.71,11.23a14.28,14.28,0,0,0,19.24,0q3.66-3.7,3.66-11.28V602.27h11.89V638Q1041.16,650.4,1034.14,656.91Z"/><path class="cls-1" d="M1150.09,662.55h-21.36V602.27h21.36q13.7,0,21.74,8.26t8.06,21.88q0,13.61-8.06,21.87T1150.09,662.55Zm-9.56-50.21v40.13h9.56q8.27,0,13.09-5.34t4.82-14.72q0-9.39-4.82-14.73t-13.09-5.34Z"/><path class="cls-1" d="M1267.21,662.55h-11.8V602.27h11.8Z"/><path class="cls-1" d="M1383,663.41q-12.73,0-20.49-8.52t-7.75-22.48q0-13.95,7.75-22.48T1383,601.4q12.84,0,20.59,8.53t7.75,22.48q0,14-7.75,22.48T1383,663.41Zm0-10.07a14.58,14.58,0,0,0,12-5.56q4.42-5.55,4.43-15.37T1395,617a15.74,15.74,0,0,0-24,0q-4.47,5.57-4.47,15.38t4.47,15.37A14.62,14.62,0,0,0,1383,653.34Z"/><path class="cls-1" d="M818,574.86H787.18V445.79H737.92v-27H867.21v27H818Z"/><path class="cls-1" d="M918.26,574.86H887.72v-156h30.54Z"/><path class="cls-1" d="M1020.13,577.09q-35.24,0-55.73-22t-20.51-58.29q0-36.12,20.06-58.18t53.5-22.07q52.17,0,66.87,44.14l-29.87,8q-9.36-27-37-27-19.4,0-31.21,14.82t-11.81,40.24q0,25.86,12.15,40.46t34,14.6q19.39,0,32.55-12.49V512.22l-33-1.56V490.82h62.63v59.29Q1060.24,577.1,1020.13,577.09Z"/><path class="cls-1" d="M1179.28,577.09q-33,0-53-22.07t-20.06-58.18q0-36.12,20.06-58.18t53-22.07q33.23,0,53.28,22.07t20.06,58.18q0,36.1-20.06,58.18T1179.28,577.09Zm0-26.09q19.62,0,31.1-14.37t11.48-39.79q0-25.41-11.48-39.79t-31.1-14.38q-19.38,0-31,14.38t-11.59,39.79q0,25.41,11.59,39.79T1179.28,551Z"/><path class="cls-1" d="M1308.13,574.86H1278v-156h32.77L1381,529.16h1.78q-.88-20.5-.89-43V418.82H1412v156h-33l-70.22-110.34h-1.56q.9,20.73.9,43Z"/><polygon class="cls-1" points="705.04 417.16 624.76 417.16 624.75 417.17 624.75 459.27 566.51 417.17 566.51 417.16 508 417.16 508 475.41 624.61 475.41 595.64 496.36 566.51 517.4 566.51 633 595.64 654.06 624.75 633 624.75 475.41 705.04 475.41 705.04 417.16"/></svg>