<?xml version="1.0" encoding="UTF-8"?>
<svg id="Layer_2" data-name="Layer 2" xmlns="http://www.w3.org/2000/svg" viewBox="0 0 761.98 204.24">
  <defs>
    <style>
      .cls-1 {
        fill: #fff;
      }
    </style>
  </defs>
  <g id="Layer_1-2" data-name="Layer 1">
    <g>
      <g>
        <g>
          <path class="cls-1" d="M331.31,189.57c-4.05,0-7.59-.85-10.61-2.55-3.02-1.7-5.05-4.21-6.08-7.54l7.34-1.89c.73,1.99,1.93,3.46,3.61,4.42,1.68.96,3.59,1.43,5.73,1.43,2.33,0,4.12-.47,5.36-1.4,1.24-.94,1.86-2.19,1.86-3.76,0-1.34-.57-2.45-1.72-3.33-1.15-.88-2.57-1.52-4.27-1.92-1.7-.4-3.55-.92-5.53-1.55-1.99-.63-3.83-1.34-5.53-2.12-1.7-.78-3.13-2.04-4.27-3.78-1.15-1.74-1.72-3.85-1.72-6.34,0-3.25,1.31-5.89,3.93-7.91,2.62-2.03,6.2-3.04,10.75-3.04,3.9,0,7.19.8,9.86,2.41,2.67,1.61,4.51,3.98,5.51,7.11l-7.46,1.89c-1.19-3.52-3.82-5.28-7.91-5.28-2.06,0-3.7.45-4.9,1.35-1.2.9-1.81,2.06-1.81,3.47,0,1.15.42,2.1,1.26,2.87.84.77,1.94,1.38,3.3,1.84,1.36.46,2.86.89,4.5,1.29,1.64.4,3.29.91,4.93,1.52,1.64.61,3.14,1.35,4.5,2.21,1.36.86,2.46,2.09,3.3,3.7.84,1.61,1.26,3.5,1.26,5.68,0,3.4-1.35,6.13-4.04,8.17-2.7,2.05-6.41,3.07-11.15,3.07Z"/>
          <path class="cls-1" d="M421.35,189h-7.91v-33.2h-12.67v-6.94h33.26v6.94h-12.67v33.2Z"/>
          <path class="cls-1" d="M511.86,185.24c-3.12,2.89-7.14,4.33-12.07,4.33s-8.96-1.44-12.07-4.33c-3.12-2.89-4.67-7.08-4.67-12.59v-23.8h7.86v23.8c0,3.33.82,5.82,2.47,7.48,1.64,1.66,3.78,2.49,6.42,2.49s4.77-.82,6.39-2.47c1.62-1.64,2.44-4.15,2.44-7.51v-23.8h7.91v23.8c0,5.51-1.56,9.7-4.67,12.59Z"/>
          <path class="cls-1" d="M589.07,189h-14.22v-40.14h14.22c6.08,0,10.9,1.83,14.48,5.51,3.57,3.67,5.36,8.53,5.36,14.57s-1.79,10.9-5.36,14.57c-3.57,3.67-8.4,5.51-14.48,5.51ZM582.7,155.57v26.72h6.37c3.67,0,6.57-1.18,8.72-3.56,2.14-2.37,3.21-5.64,3.21-9.81s-1.07-7.43-3.21-9.81c-2.14-2.37-5.05-3.56-8.72-3.56h-6.37Z"/>
          <path class="cls-1" d="M667.05,189h-7.86v-40.14h7.86v40.14Z"/>
          <path class="cls-1" d="M743.12,189.57c-5.66,0-10.21-1.89-13.65-5.68-3.44-3.78-5.16-8.77-5.16-14.97s1.72-11.18,5.16-14.97c3.44-3.78,7.99-5.68,13.65-5.68s10.26,1.89,13.71,5.68c3.44,3.78,5.16,8.77,5.16,14.97s-1.72,11.18-5.16,14.97c-3.44,3.78-8.01,5.68-13.71,5.68ZM743.12,182.87c3.36,0,6.03-1.23,8-3.7,1.97-2.47,2.95-5.88,2.95-10.24s-.98-7.77-2.95-10.24c-1.97-2.47-4.64-3.7-8-3.7s-5.98,1.23-7.97,3.7c-1.99,2.47-2.98,5.88-2.98,10.24s.99,7.77,2.98,10.24c1.99,2.47,4.65,3.7,7.97,3.7Z"/>
        </g>
        <path class="cls-1" d="M337.37,127.79h-21.99V35.54h-35.21v-19.28h92.41v19.28h-35.21v92.25Z"/>
        <path class="cls-1" d="M409.07,127.79h-21.83V16.26h21.83v111.53Z"/>
        <path class="cls-1" d="M481.88,129.39c-16.79,0-30.06-5.23-39.83-15.69-9.77-10.46-14.66-24.35-14.66-41.67s4.78-31.07,14.34-41.59c9.56-10.52,22.31-15.77,38.24-15.77,24.86,0,40.79,10.52,47.8,31.55l-21.35,5.74c-4.46-12.85-13.28-19.28-26.45-19.28-9.24,0-16.68,3.53-22.31,10.6-5.63,7.07-8.44,16.65-8.44,28.76s2.89,21.96,8.68,28.92c5.79,6.96,13.89,10.44,24.3,10.44,9.24,0,16.99-2.97,23.26-8.92v-19.44l-23.58-1.12v-14.18h44.77v42.38c-10.73,12.85-25.65,19.28-44.77,19.28Z"/>
        <path class="cls-1" d="M595.64,129.39c-15.72,0-28.36-5.26-37.92-15.77-9.56-10.52-14.34-24.38-14.34-41.59s4.78-31.07,14.34-41.59c9.56-10.52,22.2-15.77,37.92-15.77s28.52,5.26,38.08,15.77c9.56,10.52,14.34,24.38,14.34,41.59s-4.78,31.07-14.34,41.59c-9.56,10.52-22.25,15.77-38.08,15.77ZM595.64,110.75c9.35,0,16.75-3.43,22.23-10.28,5.47-6.85,8.21-16.33,8.21-28.44s-2.74-21.59-8.21-28.44c-5.47-6.85-12.88-10.28-22.23-10.28s-16.62,3.43-22.15,10.28c-5.53,6.85-8.29,16.33-8.29,28.44s2.76,21.59,8.29,28.44c5.52,6.85,12.91,10.28,22.15,10.28Z"/>
        <path class="cls-1" d="M687.74,127.79h-21.51V16.26h23.42l50.19,78.87h1.28c-.43-9.77-.64-20.02-.64-30.75V16.26h21.51v111.53h-23.58l-50.19-78.87h-1.11c.42,9.88.64,20.13.64,30.75v48.12Z"/>
      </g>
      <g>
        <polygon class="cls-1" points="59.03 60.54 59.03 172.83 87.83 204.24 116.64 204.24 116.64 93.49 59.03 60.54"/>
        <rect class="cls-1" y="14.75" width="59.38" height="45.79"/>
        <path class="cls-1" d="M221.9,0v60.54H59.38L161.83,0h60.08Z"/>
      </g>
    </g>
  </g>
</svg>